<svg id="svg" version="1.1" xmlns="http://www.w3.org/2000/svg" xmlns:xlink="http://www.w3.org/1999/xlink" width="400" height="433.3333333333333" viewBox="0, 0, 400,433.3333333333333"><g id="svgg"><path id="path0" d="M177.915 6.618 C 177.699 6.834,176.773 7.085,175.876 7.169 C 175.698 7.186,175.637 7.335,175.740 7.500 C 175.842 7.665,174.493 7.741,172.742 7.669 C 170.521 7.577,169.359 7.699,168.902 8.069 C 168.349 8.517,168.300 8.511,168.589 8.032 C 168.849 7.601,168.763 7.528,168.233 7.732 C 167.849 7.879,167.459 8.000,167.367 8.000 C 167.275 8.000,167.200 8.295,167.200 8.655 C 167.200 9.214,166.828 9.280,164.637 9.104 C 162.813 8.957,161.919 9.051,161.537 9.428 C 161.235 9.725,159.948 9.994,158.600 10.041 C 155.871 10.136,155.109 10.329,155.426 10.842 C 155.548 11.039,154.872 11.203,153.924 11.206 C 152.781 11.210,152.386 11.330,152.753 11.563 C 153.400 11.972,151.930 12.384,149.495 12.474 C 148.667 12.505,147.790 12.771,147.546 13.065 C 147.302 13.359,146.599 13.600,145.984 13.600 C 144.538 13.600,143.545 13.988,143.826 14.442 C 143.948 14.639,143.452 14.821,142.724 14.846 C 140.427 14.926,140.198 14.988,140.300 15.500 C 140.368 15.841,139.824 16.000,138.587 16.000 C 137.345 16.000,136.702 16.189,136.545 16.600 C 136.418 16.930,135.878 17.200,135.345 17.200 C 134.811 17.200,134.271 17.470,134.145 17.800 C 133.993 18.195,133.368 18.400,132.314 18.400 C 131.169 18.400,130.771 18.547,130.913 18.918 C 131.046 19.264,130.697 19.468,129.863 19.532 C 128.301 19.651,127.573 20.287,128.403 20.807 C 128.819 21.067,128.579 21.128,127.613 21.008 C 126.592 20.882,126.031 21.045,125.489 21.627 C 125.084 22.062,124.569 22.305,124.346 22.166 C 124.122 22.028,123.582 22.298,123.146 22.766 C 122.709 23.235,122.156 23.496,121.915 23.348 C 121.675 23.199,121.243 23.399,120.956 23.793 C 120.668 24.186,120.063 24.528,119.611 24.554 C 119.160 24.579,118.799 24.780,118.811 25.000 C 118.822 25.220,118.239 25.496,117.516 25.613 C 116.776 25.732,116.244 26.039,116.300 26.313 C 116.363 26.622,115.888 26.800,115.000 26.800 C 114.022 26.800,113.600 26.981,113.600 27.400 C 113.600 27.730,113.389 28.000,113.131 28.000 C 112.874 28.000,112.365 28.269,112.001 28.599 C 111.638 28.928,110.871 29.236,110.299 29.284 C 109.726 29.331,109.345 29.512,109.452 29.685 C 109.560 29.858,109.446 30.000,109.200 30.000 C 108.954 30.000,108.863 30.178,108.997 30.395 C 109.142 30.630,108.963 30.684,108.555 30.527 C 108.121 30.361,107.965 30.420,108.132 30.690 C 108.424 31.162,107.563 31.600,106.344 31.600 C 105.909 31.600,105.665 31.782,105.802 32.003 C 106.060 32.421,104.419 33.235,103.915 32.938 C 103.562 32.731,102.000 34.250,102.000 34.800 C 102.000 35.020,101.730 35.200,101.400 35.200 C 101.070 35.200,100.800 35.450,100.800 35.757 C 100.800 36.063,100.335 36.430,99.766 36.573 C 99.197 36.716,98.322 37.275,97.820 37.816 C 97.319 38.357,96.430 38.840,95.845 38.888 C 95.168 38.944,94.853 39.162,94.978 39.488 C 95.160 39.961,94.695 40.185,93.851 40.031 C 93.659 39.996,93.608 40.245,93.738 40.584 C 93.902 41.010,93.732 41.200,93.187 41.200 C 92.671 41.200,92.400 41.471,92.400 41.987 C 92.400 42.532,92.210 42.702,91.784 42.538 C 91.391 42.388,91.210 42.502,91.284 42.851 C 91.359 43.208,90.953 43.443,90.122 43.524 C 89.201 43.613,88.905 43.809,89.064 44.224 C 89.216 44.618,89.007 44.800,88.400 44.800 C 87.777 44.800,87.583 44.978,87.745 45.400 C 87.901 45.808,87.723 46.000,87.187 46.000 C 86.754 46.000,86.400 46.270,86.400 46.600 C 86.400 46.930,86.130 47.200,85.800 47.200 C 85.470 47.200,85.200 47.470,85.200 47.800 C 85.200 48.130,84.930 48.400,84.600 48.400 C 84.270 48.400,84.000 48.670,84.000 49.000 C 84.000 49.330,83.719 49.600,83.376 49.600 C 83.033 49.600,82.842 49.744,82.951 49.920 C 83.059 50.096,82.800 50.457,82.374 50.723 C 81.933 50.999,81.600 51.038,81.600 50.816 C 81.600 50.601,81.341 50.524,81.025 50.646 C 80.709 50.767,80.548 51.121,80.668 51.433 C 80.813 51.810,80.607 52.000,80.055 52.000 C 79.464 52.000,79.295 52.181,79.467 52.630 C 79.642 53.087,79.501 53.224,78.954 53.130 C 78.422 53.038,78.235 53.206,78.318 53.700 C 78.421 54.317,78.004 54.581,77.124 54.455 C 76.973 54.434,76.736 54.773,76.597 55.208 C 76.459 55.644,76.223 56.001,76.073 56.002 C 75.366 56.007,73.168 58.539,73.383 59.101 C 73.576 59.602,73.510 59.624,73.026 59.221 C 72.531 58.811,72.386 58.916,72.151 59.852 C 71.840 61.090,69.608 63.600,68.817 63.600 C 68.535 63.600,68.415 63.863,68.545 64.200 C 68.701 64.608,68.523 64.800,67.987 64.800 C 67.554 64.800,67.200 65.070,67.200 65.400 C 67.200 65.730,66.930 66.000,66.600 66.000 C 66.270 66.000,66.000 66.230,66.000 66.511 C 66.000 66.792,65.477 67.481,64.837 68.043 C 64.197 68.604,63.608 69.499,63.527 70.032 C 63.447 70.564,63.160 70.955,62.891 70.900 C 62.621 70.845,62.400 71.005,62.400 71.256 C 62.400 71.507,62.085 71.970,61.700 72.286 C 61.315 72.601,61.225 72.745,61.500 72.606 C 61.775 72.467,62.000 72.458,62.000 72.586 C 62.000 72.715,61.530 72.998,60.957 73.217 C 60.092 73.545,59.997 73.715,60.406 74.207 C 60.748 74.620,60.761 74.800,60.449 74.800 C 60.202 74.800,60.000 75.076,60.000 75.413 C 60.000 75.749,59.731 76.128,59.402 76.254 C 59.074 76.381,58.923 76.676,59.068 76.910 C 59.235 77.180,59.079 77.239,58.645 77.073 C 58.237 76.916,58.058 76.970,58.203 77.205 C 58.337 77.422,58.246 77.600,58.000 77.600 C 57.754 77.600,57.683 77.811,57.842 78.068 C 58.036 78.382,57.914 78.453,57.470 78.282 C 57.107 78.143,56.829 78.157,56.852 78.314 C 57.017 79.421,56.711 80.400,56.200 80.400 C 55.870 80.400,55.621 80.535,55.647 80.700 C 55.778 81.525,55.534 81.906,54.910 81.856 C 54.459 81.819,54.199 82.113,54.160 82.700 C 54.052 84.322,54.004 84.450,53.600 84.200 C 53.206 83.957,53.141 84.113,53.058 85.500 C 53.035 85.885,52.518 86.645,51.908 87.189 C 51.299 87.733,50.800 88.569,50.800 89.046 C 50.800 89.524,50.530 90.018,50.200 90.145 C 49.870 90.271,49.600 90.811,49.600 91.345 C 49.600 91.878,49.330 92.418,49.000 92.545 C 48.670 92.671,48.400 93.231,48.400 93.787 C 48.400 94.421,48.175 94.800,47.800 94.800 C 47.470 94.800,47.200 95.055,47.200 95.367 C 47.200 95.678,47.018 95.994,46.796 96.068 C 46.574 96.142,46.308 96.639,46.205 97.172 C 46.103 97.705,45.830 98.258,45.600 98.400 C 45.370 98.542,45.100 99.082,45.000 99.600 C 44.900 100.118,44.590 100.682,44.311 100.855 C 44.032 101.027,43.767 101.653,43.721 102.246 C 43.603 103.778,43.269 104.490,42.803 104.202 C 42.567 104.056,42.400 104.443,42.400 105.134 C 42.400 105.814,42.146 106.412,41.800 106.545 C 41.470 106.671,41.200 107.211,41.200 107.745 C 41.200 108.278,40.968 108.803,40.685 108.912 C 40.401 109.021,40.123 109.803,40.066 110.650 C 40.008 111.516,39.698 112.337,39.359 112.527 C 38.857 112.808,38.844 112.973,39.278 113.509 C 39.666 113.988,39.671 114.076,39.300 113.853 C 38.985 113.664,38.800 113.784,38.800 114.176 C 38.800 114.519,38.530 114.800,38.200 114.800 C 37.758 114.800,37.600 115.262,37.600 116.557 C 37.600 117.750,37.407 118.388,37.000 118.545 C 36.604 118.697,36.400 119.323,36.400 120.387 C 36.400 121.554,36.234 122.000,35.800 122.000 C 35.470 122.000,35.200 122.281,35.200 122.624 C 35.200 123.006,35.393 123.138,35.700 122.965 C 36.100 122.739,36.100 122.790,35.700 123.221 C 35.425 123.518,35.200 124.174,35.200 124.680 C 35.200 125.248,34.961 125.600,34.575 125.600 C 34.219 125.600,33.980 125.902,34.021 126.300 C 34.201 128.074,33.968 129.200,33.419 129.200 C 32.986 129.200,32.808 129.836,32.719 131.700 C 32.636 133.438,32.448 134.170,32.100 134.100 C 31.738 134.028,31.600 134.779,31.600 136.829 C 31.600 138.810,31.420 139.837,31.000 140.257 C 30.591 140.666,30.400 141.676,30.400 143.429 C 30.400 145.292,30.255 146.000,29.872 146.000 C 29.476 146.000,29.320 147.021,29.246 150.100 C 29.191 152.395,28.957 154.376,28.715 154.600 C 28.414 154.879,28.380 154.830,28.603 154.438 C 28.809 154.078,28.770 153.972,28.494 154.142 C 28.216 154.314,28.048 157.041,28.017 161.896 C 27.979 167.920,27.859 169.447,27.401 169.704 C 26.933 169.965,26.831 171.738,26.830 179.626 C 26.829 184.908,26.983 189.134,27.172 189.017 C 27.804 188.627,27.970 189.948,28.022 195.795 C 28.051 198.988,28.225 201.508,28.409 201.394 C 29.008 201.024,29.176 201.826,29.236 205.343 C 29.281 207.989,29.424 208.800,29.847 208.800 C 30.357 208.800,30.668 211.671,30.421 214.100 C 30.380 214.498,30.619 214.800,30.975 214.800 C 31.472 214.800,31.600 215.290,31.600 217.200 C 31.600 219.067,31.733 219.600,32.200 219.600 C 32.589 219.600,32.818 220.022,32.850 220.800 C 32.927 222.655,32.968 222.809,33.463 223.115 C 33.717 223.272,33.997 224.359,34.085 225.529 C 34.173 226.700,34.451 227.784,34.701 227.939 C 34.952 228.094,35.202 228.981,35.257 229.910 C 35.320 230.982,35.547 231.600,35.878 231.600 C 36.165 231.600,36.400 231.947,36.400 232.371 C 36.400 232.796,36.674 233.417,37.008 233.751 C 37.343 234.086,37.670 235.013,37.736 235.811 C 37.801 236.610,38.086 237.406,38.368 237.580 C 38.649 237.754,38.880 238.550,38.880 239.348 C 38.880 240.326,39.063 240.800,39.440 240.800 C 40.006 240.800,40.151 241.224,40.021 242.500 C 39.980 242.898,40.219 243.200,40.575 243.200 C 40.977 243.200,41.200 243.561,41.200 244.213 C 41.200 244.769,41.470 245.329,41.800 245.455 C 42.167 245.596,42.400 246.202,42.400 247.014 C 42.400 247.745,42.670 248.613,43.000 248.943 C 43.330 249.273,43.600 249.813,43.600 250.143 C 43.600 250.473,43.871 251.014,44.202 251.345 C 44.534 251.676,44.843 252.409,44.890 252.974 C 44.936 253.538,45.205 254.000,45.487 254.000 C 45.790 254.000,46.000 254.491,46.000 255.200 C 46.000 255.935,46.190 256.361,46.491 256.300 C 46.760 256.245,47.048 256.650,47.129 257.200 C 47.210 257.750,47.530 258.344,47.838 258.520 C 48.147 258.696,48.400 259.241,48.400 259.731 C 48.400 260.221,48.747 260.919,49.170 261.282 C 49.689 261.726,49.864 262.234,49.706 262.838 C 49.518 263.556,49.604 263.684,50.136 263.480 C 50.795 263.227,50.917 263.518,50.905 265.324 C 50.902 265.747,51.112 265.966,51.411 265.851 C 51.691 265.743,52.012 266.003,52.123 266.428 C 52.258 266.942,52.170 267.108,51.863 266.924 C 51.558 266.741,51.570 266.856,51.897 267.260 C 52.170 267.597,52.260 268.021,52.097 268.201 C 51.933 268.380,52.113 268.415,52.495 268.278 C 52.878 268.141,53.171 268.157,53.148 268.314 C 53.011 269.232,53.266 269.660,53.821 269.447 C 54.162 269.316,54.339 269.375,54.214 269.577 C 54.089 269.779,54.153 270.047,54.356 270.173 C 54.559 270.298,54.631 270.761,54.516 271.200 C 54.376 271.734,54.504 272.000,54.898 272.000 C 55.292 272.000,55.453 272.335,55.380 273.000 C 55.281 273.907,55.604 274.198,56.530 274.037 C 56.712 274.006,56.737 274.367,56.587 274.840 C 56.378 275.499,56.441 275.624,56.857 275.373 C 57.307 275.103,57.306 275.163,56.851 275.723 C 56.385 276.298,56.386 276.400,56.862 276.400 C 57.170 276.400,57.687 276.721,58.011 277.113 C 59.465 278.872,59.775 279.338,59.300 279.053 C 58.595 278.629,58.676 279.399,59.400 280.000 C 59.730 280.274,60.000 280.915,60.000 281.425 C 60.000 282.396,60.777 283.235,60.832 282.324 C 60.849 282.036,61.044 282.296,61.266 282.902 C 61.487 283.509,61.833 283.903,62.034 283.779 C 62.235 283.655,62.400 283.910,62.400 284.346 C 62.400 284.782,62.940 285.678,63.600 286.338 C 64.260 286.998,64.800 287.816,64.800 288.155 C 64.800 288.495,65.340 289.325,66.000 290.000 C 66.660 290.675,67.200 291.541,67.200 291.925 C 67.200 292.308,67.710 293.069,68.333 293.616 C 68.956 294.163,69.589 295.103,69.740 295.705 C 69.892 296.307,70.282 296.800,70.608 296.800 C 70.933 296.800,71.200 297.070,71.200 297.400 C 71.200 297.730,71.366 298.000,71.568 298.000 C 71.771 298.000,72.055 298.540,72.200 299.200 C 72.353 299.895,72.721 300.400,73.075 300.400 C 73.453 300.400,73.598 300.628,73.455 301.000 C 73.315 301.365,73.455 301.600,73.813 301.600 C 74.349 301.600,74.557 302.168,74.507 303.500 C 74.497 303.775,74.739 304.000,75.044 304.000 C 75.350 304.000,75.600 304.270,75.600 304.600 C 75.600 304.930,75.870 305.200,76.200 305.200 C 76.530 305.200,76.800 305.470,76.800 305.800 C 76.800 306.130,77.058 306.400,77.373 306.400 C 77.702 306.400,78.001 306.870,78.073 307.500 C 78.145 308.119,78.419 308.556,78.700 308.500 C 78.975 308.445,79.200 308.676,79.200 309.013 C 79.200 309.349,79.470 309.729,79.800 309.855 C 80.130 309.982,80.400 310.336,80.400 310.643 C 80.400 310.949,80.670 311.200,81.000 311.200 C 81.405 311.200,81.600 311.605,81.600 312.447 C 81.600 313.468,81.735 313.658,82.349 313.497 C 82.942 313.342,83.054 313.471,82.886 314.114 C 82.713 314.774,82.826 314.887,83.486 314.714 C 84.129 314.546,84.258 314.658,84.103 315.251 C 83.971 315.755,84.118 316.000,84.553 316.000 C 85.011 316.000,85.200 316.365,85.200 317.247 C 85.200 318.267,85.336 318.458,85.947 318.298 C 86.460 318.164,86.679 318.306,86.647 318.751 C 86.620 319.119,86.881 319.380,87.249 319.353 C 87.711 319.319,87.837 319.539,87.686 320.116 C 87.510 320.787,87.623 320.887,88.336 320.701 C 88.811 320.577,89.317 320.666,89.461 320.899 C 89.616 321.149,89.533 321.206,89.262 321.038 C 88.988 320.869,88.800 321.007,88.800 321.376 C 88.800 321.719,89.070 322.000,89.400 322.000 C 89.800 322.000,90.000 322.400,90.000 323.200 C 90.000 324.000,90.200 324.400,90.600 324.400 C 90.930 324.400,91.200 324.670,91.200 325.000 C 91.200 325.330,91.554 325.600,91.987 325.600 C 92.540 325.600,92.703 325.788,92.533 326.230 C 92.358 326.687,92.499 326.824,93.046 326.730 C 93.576 326.639,93.765 326.806,93.684 327.294 C 93.603 327.776,93.756 327.915,94.184 327.751 C 94.778 327.523,95.032 328.397,94.821 329.940 C 94.780 330.237,94.932 330.366,95.159 330.226 C 95.385 330.085,95.858 330.292,96.209 330.685 C 98.921 333.720,100.083 334.796,100.424 334.585 C 100.642 334.451,100.794 334.489,100.763 334.670 C 100.526 336.032,100.856 337.264,101.400 337.055 C 101.815 336.896,102.000 337.082,102.000 337.655 C 102.000 338.229,102.185 338.414,102.600 338.255 C 103.008 338.099,103.200 338.277,103.200 338.813 C 103.200 339.259,103.470 339.600,103.824 339.600 C 104.167 339.600,104.328 339.792,104.183 340.027 C 104.038 340.262,104.297 340.553,104.760 340.674 C 105.222 340.794,105.600 341.061,105.600 341.266 C 105.600 341.471,106.050 342.055,106.600 342.565 C 107.150 343.075,107.638 343.955,107.685 344.522 C 107.737 345.148,108.066 345.629,108.525 345.749 C 108.941 345.857,109.174 346.118,109.045 346.328 C 108.915 346.537,109.185 346.807,109.645 346.928 C 110.104 347.048,110.362 347.338,110.217 347.573 C 110.072 347.808,110.233 348.000,110.576 348.000 C 110.919 348.000,111.200 348.270,111.200 348.600 C 111.200 348.930,111.405 349.200,111.656 349.200 C 111.907 349.200,112.370 349.515,112.686 349.900 C 113.001 350.285,113.128 350.347,112.968 350.038 C 112.776 349.669,112.835 349.574,113.138 349.762 C 113.392 349.919,113.600 350.296,113.600 350.600 C 113.600 350.904,113.808 351.281,114.062 351.438 C 114.348 351.615,114.415 351.548,114.238 351.262 C 114.081 351.008,114.058 350.800,114.186 350.800 C 114.315 350.800,114.595 351.261,114.809 351.824 C 115.023 352.387,115.358 352.749,115.554 352.629 C 115.749 352.508,116.007 352.785,116.128 353.245 C 116.248 353.704,116.538 353.962,116.773 353.817 C 117.008 353.672,117.200 353.797,117.200 354.095 C 117.200 354.393,117.732 355.079,118.383 355.619 C 119.034 356.158,119.574 356.936,119.583 357.347 C 119.600 358.087,122.777 361.614,122.825 360.947 C 122.839 360.756,123.018 361.017,123.222 361.526 C 123.426 362.035,123.775 362.339,123.997 362.202 C 124.218 362.065,124.400 362.193,124.400 362.487 C 124.400 363.068,125.581 364.227,126.154 364.210 C 126.349 364.205,126.662 364.617,126.851 365.126 C 127.039 365.635,127.375 365.939,127.597 365.802 C 127.818 365.665,128.000 365.918,128.000 366.364 C 128.000 366.920,128.188 367.103,128.600 366.945 C 128.932 366.817,129.200 366.933,129.200 367.204 C 129.200 367.817,132.147 370.800,132.753 370.800 C 132.999 370.800,133.200 371.070,133.200 371.400 C 133.200 371.730,133.464 372.000,133.787 372.000 C 134.145 372.000,134.285 372.235,134.145 372.600 C 133.999 372.980,134.150 373.200,134.557 373.200 C 134.911 373.200,135.200 373.470,135.200 373.800 C 135.200 374.130,135.470 374.400,135.800 374.400 C 136.130 374.400,136.400 374.670,136.400 375.000 C 136.400 375.330,136.754 375.600,137.187 375.600 C 137.723 375.600,137.901 375.792,137.745 376.200 C 137.584 376.620,137.775 376.800,138.381 376.800 C 138.893 376.800,139.139 376.975,138.983 377.227 C 138.838 377.462,139.096 377.752,139.555 377.872 C 140.015 377.993,140.285 378.263,140.155 378.472 C 140.026 378.682,140.296 378.952,140.755 379.072 C 141.215 379.193,141.485 379.463,141.355 379.672 C 141.226 379.882,141.496 380.152,141.955 380.272 C 142.415 380.393,142.691 380.652,142.570 380.849 C 142.448 381.046,142.765 381.374,143.274 381.578 C 143.783 381.782,144.074 381.961,143.919 381.975 C 143.507 382.012,147.569 386.000,148.019 386.000 C 148.229 386.000,148.400 386.270,148.400 386.600 C 148.400 386.930,148.670 387.200,149.000 387.200 C 149.330 387.200,149.600 387.470,149.600 387.800 C 149.600 388.130,149.870 388.400,150.200 388.400 C 150.530 388.400,150.800 388.670,150.800 389.000 C 150.800 389.330,151.070 389.600,151.400 389.600 C 151.730 389.600,152.000 389.870,152.000 390.200 C 152.000 390.530,152.270 390.800,152.600 390.800 C 152.930 390.800,153.200 391.070,153.200 391.400 C 153.200 391.730,153.481 392.000,153.824 392.000 C 154.167 392.000,154.328 392.192,154.183 392.427 C 154.038 392.662,154.297 392.953,154.760 393.074 C 155.222 393.194,155.600 393.542,155.600 393.847 C 155.600 394.151,155.870 394.400,156.200 394.400 C 156.530 394.400,156.800 394.658,156.800 394.973 C 156.800 395.302,157.270 395.601,157.900 395.673 C 158.505 395.743,158.966 395.980,158.924 396.200 C 158.882 396.420,159.209 396.733,159.650 396.897 C 160.091 397.060,160.339 397.375,160.202 397.597 C 160.065 397.818,160.233 398.000,160.576 398.000 C 160.919 398.000,161.200 398.270,161.200 398.600 C 161.200 398.930,161.451 399.200,161.757 399.200 C 162.064 399.200,162.422 399.481,162.554 399.825 C 162.686 400.169,162.976 400.339,163.197 400.202 C 163.419 400.065,163.600 400.233,163.600 400.576 C 163.600 400.919,163.870 401.200,164.200 401.200 C 164.530 401.200,164.800 401.398,164.800 401.640 C 164.800 402.433,171.485 408.800,172.317 408.800 C 172.756 408.800,173.222 409.081,173.354 409.425 C 173.486 409.769,173.776 409.939,173.997 409.802 C 174.219 409.665,174.400 409.770,174.400 410.036 C 174.400 410.619,177.242 413.442,177.686 413.300 C 177.859 413.245,178.000 413.554,178.000 413.987 C 178.000 414.523,178.192 414.701,178.600 414.545 C 178.931 414.418,179.200 414.533,179.200 414.801 C 179.200 415.726,180.985 417.186,182.124 417.193 C 182.776 417.197,183.143 417.369,182.998 417.603 C 182.861 417.825,183.165 418.174,183.674 418.378 C 184.183 418.582,184.444 418.761,184.253 418.775 C 183.762 418.811,187.013 422.000,187.540 422.000 C 187.779 422.000,187.871 422.270,187.745 422.600 C 187.566 423.064,187.838 423.200,188.945 423.200 C 190.052 423.200,190.323 423.336,190.145 423.800 C 189.986 424.215,190.171 424.400,190.745 424.400 C 191.318 424.400,191.504 424.585,191.345 425.000 C 191.184 425.420,191.375 425.600,191.981 425.600 C 192.493 425.600,192.739 425.775,192.583 426.027 C 192.438 426.262,192.696 426.552,193.155 426.672 C 193.615 426.793,193.900 427.038,193.790 427.217 C 193.679 427.396,193.954 427.658,194.400 427.800 C 194.846 427.942,195.120 428.206,195.008 428.387 C 194.621 429.013,196.088 429.200,201.404 429.200 C 206.810 429.200,208.508 428.746,207.742 427.506 C 207.584 427.251,207.664 427.193,207.939 427.362 C 208.206 427.528,208.907 427.095,209.601 426.335 C 210.260 425.613,210.808 425.197,210.818 425.411 C 210.828 425.625,211.083 425.260,211.386 424.600 C 211.688 423.940,211.950 423.614,211.968 423.875 C 211.985 424.136,212.359 424.323,212.798 424.290 C 213.273 424.254,213.556 423.981,213.498 423.615 C 213.437 423.235,213.678 423.023,214.127 423.060 C 214.600 423.099,214.780 422.924,214.640 422.560 C 214.498 422.191,214.708 422.000,215.255 422.000 C 215.829 422.000,216.014 421.815,215.855 421.400 C 215.699 420.992,215.877 420.800,216.413 420.800 C 216.846 420.800,217.200 420.530,217.200 420.200 C 217.200 419.870,217.470 419.600,217.800 419.600 C 218.130 419.600,218.400 419.330,218.400 419.000 C 218.400 418.600,218.800 418.400,219.600 418.400 C 220.400 418.400,220.800 418.200,220.800 417.800 C 220.800 417.470,221.070 417.200,221.400 417.200 C 221.730 417.200,222.000 416.949,222.000 416.643 C 222.000 416.336,222.281 415.978,222.625 415.846 C 222.969 415.714,223.139 415.424,223.002 415.203 C 222.771 414.829,223.328 414.619,224.149 414.769 C 224.341 414.804,224.392 414.555,224.262 414.216 C 224.095 413.783,224.272 413.600,224.855 413.600 C 225.429 413.600,225.614 413.415,225.455 413.000 C 225.299 412.592,225.477 412.400,226.013 412.400 C 226.446 412.400,226.800 412.130,226.800 411.800 C 226.800 411.196,227.207 411.048,228.500 411.179 C 228.898 411.220,229.200 410.981,229.200 410.625 C 229.200 410.281,229.470 410.000,229.800 410.000 C 230.130 410.000,230.379 409.865,230.353 409.700 C 230.224 408.884,230.445 408.380,230.827 408.617 C 231.062 408.762,231.352 408.504,231.472 408.045 C 231.593 407.585,231.863 407.315,232.072 407.445 C 232.282 407.574,232.552 407.304,232.672 406.845 C 232.793 406.385,233.052 406.108,233.248 406.230 C 233.445 406.351,233.714 406.169,233.846 405.825 C 233.978 405.481,234.336 405.200,234.643 405.200 C 234.949 405.200,235.200 404.930,235.200 404.600 C 235.200 404.270,235.470 404.000,235.800 404.000 C 236.130 404.000,236.400 403.730,236.400 403.400 C 236.400 403.070,236.649 402.800,236.953 402.800 C 237.258 402.800,237.595 402.461,237.704 402.046 C 237.855 401.470,238.156 401.341,238.980 401.498 C 239.871 401.669,240.036 401.573,239.930 400.952 C 239.857 400.533,240.011 400.241,240.276 400.292 C 240.537 400.342,240.865 400.025,241.004 399.586 C 241.144 399.147,241.412 398.884,241.600 399.000 C 241.788 399.116,242.062 398.835,242.208 398.376 C 242.354 397.916,242.550 397.616,242.643 397.710 C 242.737 397.803,243.726 396.982,244.841 395.885 C 246.386 394.364,246.741 393.803,246.334 393.528 C 245.905 393.238,245.918 393.179,246.400 393.231 C 247.660 393.365,248.080 393.185,247.857 392.605 C 247.732 392.277,247.757 392.029,247.914 392.052 C 248.813 392.186,249.260 391.933,249.057 391.405 C 248.932 391.077,248.957 390.829,249.114 390.852 C 250.016 390.987,250.460 390.733,250.255 390.200 C 250.096 389.785,250.282 389.600,250.855 389.600 C 251.429 389.600,251.614 389.415,251.455 389.000 C 251.299 388.592,251.477 388.400,252.013 388.400 C 252.446 388.400,252.800 388.130,252.800 387.800 C 252.800 387.470,253.070 387.200,253.400 387.200 C 253.730 387.200,254.000 386.930,254.000 386.600 C 254.000 386.043,254.694 385.813,255.900 385.970 C 256.347 386.028,256.572 385.517,256.452 384.714 C 256.429 384.557,256.677 384.532,257.005 384.657 C 257.533 384.860,257.786 384.413,257.652 383.514 C 257.629 383.357,257.877 383.332,258.205 383.457 C 258.744 383.664,258.997 383.189,258.837 382.270 C 258.806 382.089,258.952 382.047,259.162 382.176 C 259.550 382.416,263.622 378.555,263.310 378.243 C 263.216 378.150,263.516 377.954,263.976 377.808 C 264.435 377.662,264.716 377.388,264.600 377.200 C 264.484 377.012,264.751 376.743,265.194 376.602 C 265.637 376.461,266.000 376.094,266.000 375.786 C 266.000 375.452,266.243 375.318,266.600 375.455 C 267.015 375.614,267.200 375.429,267.200 374.855 C 267.200 374.282,267.385 374.096,267.800 374.255 C 268.180 374.401,268.400 374.250,268.400 373.843 C 268.400 373.489,268.670 373.200,269.000 373.200 C 269.330 373.200,269.600 372.930,269.600 372.600 C 269.600 372.270,269.870 372.000,270.200 372.000 C 270.530 372.000,270.800 371.730,270.800 371.400 C 270.800 371.070,271.070 370.800,271.400 370.800 C 271.730 370.800,272.000 370.549,272.000 370.243 C 272.000 369.936,272.281 369.578,272.625 369.446 C 272.969 369.314,273.151 369.045,273.030 368.848 C 272.908 368.652,273.168 368.397,273.606 368.282 C 274.127 368.146,274.321 367.859,274.165 367.453 C 273.986 366.986,274.139 366.873,274.784 366.997 C 275.476 367.130,275.595 367.015,275.400 366.400 C 275.207 365.793,275.325 365.670,275.979 365.796 C 276.501 365.896,276.800 365.744,276.800 365.377 C 276.800 365.060,277.070 364.800,277.400 364.800 C 277.730 364.800,278.000 364.446,278.000 364.013 C 278.000 363.477,278.192 363.299,278.600 363.455 C 278.980 363.601,279.200 363.450,279.200 363.043 C 279.200 362.689,279.470 362.400,279.800 362.400 C 280.130 362.400,280.379 362.265,280.353 362.100 C 280.224 361.284,280.445 360.780,280.827 361.017 C 281.062 361.162,281.352 360.904,281.472 360.445 C 281.593 359.985,281.852 359.709,282.049 359.830 C 282.246 359.952,282.561 359.635,282.749 359.126 C 282.938 358.617,283.251 358.251,283.446 358.312 C 283.641 358.374,283.857 357.969,283.927 357.412 C 283.996 356.856,284.311 356.400,284.627 356.400 C 284.942 356.400,285.200 356.130,285.200 355.800 C 285.200 355.470,285.470 355.200,285.800 355.200 C 286.130 355.200,286.400 354.930,286.400 354.600 C 286.400 354.270,286.670 354.000,287.000 354.000 C 287.330 354.000,287.600 353.646,287.600 353.213 C 287.600 352.660,287.788 352.497,288.230 352.667 C 288.687 352.842,288.824 352.701,288.730 352.154 C 288.641 351.639,288.808 351.434,289.257 351.508 C 289.674 351.576,289.893 351.357,289.857 350.908 C 289.819 350.438,290.038 350.240,290.506 350.319 C 290.895 350.384,291.188 350.294,291.159 350.119 C 291.043 349.431,291.212 348.679,291.433 348.900 C 291.938 349.404,294.728 345.989,294.620 345.000 C 294.561 344.462,294.655 344.111,294.830 344.218 C 295.286 344.500,299.261 340.423,298.978 339.964 C 298.847 339.753,298.889 339.606,299.070 339.637 C 299.978 339.795,300.424 339.532,300.318 338.900 C 300.236 338.416,300.423 338.238,300.923 338.323 C 301.431 338.409,301.609 338.231,301.523 337.723 C 301.438 337.223,301.616 337.036,302.100 337.118 C 302.590 337.200,302.800 336.971,302.800 336.358 C 302.800 335.876,303.433 334.866,304.207 334.114 C 304.981 333.362,305.512 332.581,305.387 332.378 C 305.261 332.175,305.438 332.116,305.779 332.247 C 306.345 332.465,306.600 332.008,306.437 331.070 C 306.406 330.889,306.558 330.850,306.775 330.985 C 307.394 331.367,308.800 329.710,308.800 328.600 C 308.800 327.948,309.024 327.600,309.443 327.600 C 309.857 327.600,310.002 327.381,309.849 326.984 C 309.685 326.556,309.824 326.403,310.306 326.484 C 310.740 326.556,310.982 326.357,310.953 325.953 C 310.928 325.598,311.178 325.328,311.510 325.353 C 311.842 325.379,312.202 325.150,312.309 324.844 C 312.443 324.461,312.332 324.390,311.952 324.613 C 311.648 324.792,311.743 324.547,312.162 324.069 C 313.013 323.098,313.581 322.859,312.800 323.800 C 312.394 324.290,312.417 324.400,312.926 324.400 C 313.337 324.400,313.592 323.957,313.675 323.100 C 313.744 322.385,313.980 321.834,314.200 321.876 C 314.420 321.918,314.733 321.591,314.897 321.150 C 315.060 320.709,315.375 320.461,315.597 320.598 C 315.818 320.735,316.000 320.567,316.000 320.224 C 316.000 319.881,316.270 319.600,316.600 319.600 C 317.297 319.600,317.378 319.138,316.787 318.547 C 316.503 318.263,316.644 318.144,317.240 318.167 C 317.843 318.190,318.151 317.926,318.251 317.302 C 318.330 316.809,319.130 315.690,320.030 314.817 C 321.020 313.856,321.549 313.042,321.371 312.753 C 321.185 312.452,321.247 312.382,321.538 312.562 C 321.830 312.742,322.000 312.544,322.000 312.024 C 322.000 311.558,322.261 311.200,322.600 311.200 C 322.930 311.200,323.208 310.975,323.217 310.700 C 323.226 310.425,323.766 309.758,324.417 309.219 C 325.663 308.186,326.104 307.111,324.900 308.044 C 323.939 308.788,325.399 307.015,326.947 305.557 C 327.578 304.963,327.985 304.299,327.851 304.083 C 327.717 303.866,328.332 302.942,329.218 302.029 C 330.104 301.116,330.719 300.192,330.585 299.975 C 330.450 299.758,330.575 299.630,330.861 299.690 C 331.147 299.751,331.443 299.395,331.518 298.900 C 331.594 298.405,331.842 298.000,332.071 298.000 C 332.299 298.000,332.378 297.721,332.247 297.379 C 332.116 297.038,332.173 296.859,332.372 296.983 C 332.847 297.276,334.000 296.113,334.000 295.341 C 334.000 295.009,334.540 294.198,335.200 293.538 C 335.860 292.878,336.400 292.053,336.400 291.705 C 336.400 291.356,336.936 290.593,337.591 290.008 C 338.431 289.258,338.730 288.677,338.607 288.036 C 338.480 287.376,338.586 287.186,338.995 287.343 C 339.676 287.604,340.132 286.408,339.740 285.387 C 339.525 284.827,339.610 284.718,340.110 284.910 C 340.541 285.076,340.843 284.895,341.008 284.374 C 341.145 283.942,341.416 283.686,341.609 283.805 C 341.802 283.925,342.078 283.394,342.222 282.625 C 342.366 281.857,342.600 281.267,342.742 281.314 C 342.884 281.361,343.000 281.250,343.000 281.068 C 343.000 280.885,343.429 280.505,343.954 280.225 C 344.600 279.879,344.755 279.619,344.434 279.421 C 344.104 279.217,344.259 278.852,344.949 278.213 C 345.678 277.536,345.820 277.180,345.488 276.848 C 345.157 276.517,345.165 276.400,345.520 276.400 C 345.784 276.400,346.000 276.130,346.000 275.800 C 346.000 275.470,346.292 275.200,346.649 275.200 C 347.159 275.200,347.199 275.081,346.834 274.641 C 346.467 274.199,346.580 273.917,347.371 273.294 C 347.922 272.861,348.275 272.409,348.156 272.290 C 348.037 272.171,348.323 271.951,348.791 271.803 C 349.516 271.573,349.565 271.437,349.121 270.890 C 348.733 270.410,348.727 270.323,349.100 270.547 C 349.415 270.736,349.600 270.616,349.600 270.224 C 349.600 269.881,349.791 269.600,350.025 269.600 C 350.259 269.600,350.418 269.285,350.379 268.900 C 350.247 267.598,350.398 267.200,351.025 267.200 C 351.381 267.200,351.620 266.898,351.579 266.500 C 351.447 265.198,351.598 264.800,352.225 264.800 C 352.581 264.800,352.820 264.498,352.779 264.100 C 352.617 262.507,352.797 262.024,353.460 262.278 C 354.004 262.487,354.074 262.348,353.856 261.482 C 353.653 260.673,353.777 260.333,354.396 260.002 C 354.852 259.758,355.200 259.164,355.200 258.629 C 355.200 258.110,355.470 257.582,355.800 257.455 C 356.130 257.329,356.400 256.764,356.400 256.200 C 356.400 255.636,356.673 255.070,357.007 254.942 C 357.341 254.814,357.590 254.504,357.560 254.254 C 357.437 253.229,357.633 252.800,358.225 252.800 C 358.581 252.800,358.820 252.498,358.779 252.100 C 358.646 250.790,358.799 250.400,359.447 250.400 C 359.880 250.400,360.029 250.155,359.899 249.657 C 359.657 248.732,360.307 247.496,360.857 247.835 C 361.086 247.977,361.231 247.761,361.186 247.344 C 360.993 245.514,361.225 244.400,361.800 244.400 C 362.200 244.400,362.400 244.000,362.400 243.200 C 362.400 242.400,362.600 242.000,363.000 242.000 C 363.434 242.000,363.600 241.554,363.600 240.387 C 363.600 239.323,363.804 238.697,364.200 238.545 C 364.530 238.418,364.800 237.878,364.800 237.345 C 364.800 236.811,365.070 236.271,365.400 236.145 C 365.787 235.996,366.000 235.377,366.000 234.400 C 366.000 233.423,366.213 232.804,366.600 232.655 C 366.996 232.503,367.200 231.877,367.200 230.813 C 367.200 229.646,367.366 229.200,367.800 229.200 C 368.244 229.200,368.400 228.733,368.400 227.400 C 368.400 226.107,368.561 225.600,368.971 225.600 C 369.397 225.600,369.543 225.040,369.543 223.400 C 369.543 221.933,369.752 220.990,370.171 220.571 C 370.569 220.174,370.800 219.234,370.800 218.014 C 370.800 216.669,370.981 216.016,371.400 215.855 C 371.853 215.681,372.000 214.948,372.000 212.855 C 372.000 210.762,372.147 210.029,372.600 209.855 C 373.068 209.676,373.200 208.877,373.200 206.213 C 373.200 203.537,373.322 202.800,373.766 202.800 C 374.228 202.800,374.341 201.644,374.379 196.508 C 374.417 191.498,374.543 190.152,375.000 189.896 C 375.852 189.419,375.850 168.980,374.998 168.503 C 374.536 168.244,374.417 166.758,374.381 160.812 C 374.347 155.043,374.217 153.351,373.784 153.021 C 373.391 152.723,373.203 151.465,373.138 148.700 C 373.070 145.800,372.913 144.800,372.523 144.800 C 372.082 144.800,371.683 140.809,371.953 139.100 C 371.979 138.935,371.730 138.800,371.400 138.800 C 370.933 138.800,370.800 138.267,370.800 136.400 C 370.800 134.533,370.667 134.000,370.200 134.000 C 369.733 134.000,369.600 133.467,369.600 131.600 C 369.600 129.733,369.467 129.200,369.000 129.200 C 368.533 129.200,368.400 128.667,368.400 126.800 C 368.400 124.933,368.267 124.400,367.800 124.400 C 367.356 124.400,367.200 123.933,367.200 122.600 C 367.200 121.267,367.044 120.800,366.600 120.800 C 366.156 120.800,366.000 120.335,366.000 119.013 C 366.000 117.588,365.878 117.272,365.400 117.455 C 364.823 117.677,364.570 116.782,364.779 115.260 C 364.820 114.963,364.674 114.831,364.454 114.966 C 363.904 115.306,363.651 114.785,363.536 113.077 C 363.482 112.278,363.205 111.534,362.919 111.424 C 362.634 111.315,362.400 110.764,362.400 110.200 C 362.400 109.636,362.130 109.071,361.800 108.945 C 361.393 108.788,361.200 108.150,361.200 106.957 C 361.200 105.765,361.039 105.232,360.700 105.300 C 360.416 105.357,360.144 104.911,360.070 104.269 C 359.981 103.487,359.766 103.204,359.375 103.354 C 359.064 103.474,358.829 103.443,358.852 103.286 C 359.039 102.031,358.716 100.800,358.200 100.800 C 357.800 100.800,357.600 100.400,357.600 99.600 C 357.600 98.800,357.400 98.400,357.000 98.400 C 356.600 98.400,356.400 98.000,356.400 97.200 C 356.400 96.400,356.200 96.000,355.800 96.000 C 355.400 96.000,355.200 95.600,355.200 94.800 C 355.200 94.140,355.020 93.600,354.800 93.600 C 354.101 93.600,352.800 92.031,352.800 91.187 C 352.800 90.741,352.530 90.271,352.200 90.145 C 351.858 90.013,351.600 89.417,351.600 88.757 C 351.600 87.995,351.395 87.600,351.000 87.600 C 350.627 87.600,350.400 87.223,350.400 86.605 C 350.400 85.524,349.261 83.915,348.729 84.244 C 348.548 84.356,348.400 83.933,348.400 83.305 C 348.400 82.527,348.022 81.849,347.217 81.181 C 346.560 80.636,346.026 79.796,346.017 79.290 C 346.006 78.696,345.652 78.248,345.000 78.000 C 344.450 77.791,344.000 77.515,344.000 77.386 C 344.000 77.258,344.208 77.281,344.462 77.438 C 344.748 77.615,344.815 77.548,344.638 77.262 C 344.481 77.008,344.083 76.800,343.753 76.800 C 343.423 76.800,343.244 76.652,343.356 76.471 C 343.468 76.291,343.201 75.836,342.762 75.461 C 342.324 75.086,342.082 74.590,342.224 74.360 C 342.367 74.130,341.622 73.118,340.570 72.109 C 339.518 71.101,338.635 69.969,338.607 69.593 C 338.545 68.749,333.364 63.451,332.889 63.745 C 332.700 63.862,332.622 63.430,332.717 62.786 C 332.860 61.812,332.711 61.546,331.837 61.214 C 331.259 60.994,330.613 60.361,330.403 59.807 C 330.192 59.253,329.915 58.800,329.786 58.800 C 329.658 58.800,329.681 59.008,329.838 59.262 C 330.015 59.548,329.948 59.615,329.662 59.438 C 329.408 59.281,329.200 58.933,329.200 58.665 C 329.200 57.990,327.606 56.649,327.582 57.304 C 327.572 57.577,327.299 57.260,326.976 56.600 C 326.653 55.940,326.479 55.724,326.589 56.121 C 326.705 56.535,326.623 56.738,326.395 56.597 C 326.178 56.463,326.000 56.083,326.000 55.753 C 326.000 55.423,325.822 55.263,325.605 55.397 C 325.378 55.537,325.311 55.377,325.447 55.021 C 325.597 54.631,325.464 54.400,325.089 54.400 C 324.762 54.400,324.394 54.022,324.274 53.560 C 324.153 53.097,323.862 52.838,323.627 52.983 C 323.392 53.128,323.200 52.967,323.200 52.624 C 323.200 52.281,323.015 52.000,322.789 52.000 C 322.564 52.000,321.569 51.190,320.579 50.200 C 319.589 49.210,318.487 48.400,318.130 48.400 C 317.397 48.400,314.800 45.887,314.800 45.177 C 314.800 44.923,314.530 44.818,314.200 44.945 C 313.785 45.104,313.600 44.918,313.600 44.345 C 313.600 43.771,313.415 43.586,313.000 43.745 C 312.637 43.884,312.400 43.746,312.400 43.395 C 312.400 43.076,311.905 42.691,311.300 42.539 C 310.695 42.387,309.421 41.484,308.468 40.532 L 306.737 38.800 302.156 38.800 C 298.453 38.800,297.531 38.915,297.345 39.400 C 297.218 39.730,296.864 40.000,296.557 40.000 C 296.083 40.000,296.000 50.490,296.000 110.387 C 296.000 172.790,295.932 180.749,295.400 180.545 C 294.885 180.347,294.800 181.079,294.800 185.714 C 294.800 189.884,294.677 191.162,294.259 191.322 C 293.889 191.464,293.694 192.390,293.643 194.258 C 293.590 196.173,293.394 197.084,292.984 197.313 C 292.595 197.531,292.400 198.300,292.400 199.620 C 292.400 201.113,292.253 201.600,291.800 201.600 C 291.358 201.600,291.200 202.062,291.200 203.357 C 291.200 204.422,290.997 205.192,290.685 205.312 C 290.401 205.421,290.123 206.203,290.066 207.050 C 290.008 207.916,289.698 208.737,289.359 208.927 C 288.857 209.208,288.844 209.373,289.278 209.909 C 289.666 210.388,289.671 210.476,289.300 210.253 C 288.985 210.064,288.800 210.184,288.800 210.576 C 288.800 210.919,288.560 211.200,288.266 211.200 C 287.915 211.200,287.708 211.779,287.665 212.884 C 287.625 213.909,287.364 214.700,287.000 214.904 C 286.670 215.089,286.400 215.662,286.400 216.177 C 286.400 216.693,286.130 217.218,285.800 217.345 C 285.470 217.471,285.200 218.031,285.200 218.587 C 285.200 219.221,284.975 219.600,284.600 219.600 C 284.270 219.600,284.000 219.881,284.000 220.224 C 284.000 220.567,284.193 220.728,284.430 220.582 C 284.666 220.436,284.622 220.695,284.333 221.158 C 284.044 221.621,283.570 222.000,283.279 222.000 C 282.988 222.000,282.782 222.315,282.821 222.700 C 282.952 223.993,282.804 224.400,282.200 224.400 C 281.870 224.400,281.600 224.670,281.600 225.000 C 281.600 225.330,281.319 225.600,280.975 225.600 C 280.619 225.600,280.380 225.902,280.421 226.300 C 280.593 227.987,280.396 229.013,280.016 228.412 C 279.568 227.704,279.180 228.008,279.095 229.134 C 279.048 229.760,278.908 229.856,278.517 229.531 C 278.120 229.202,278.002 229.322,278.006 230.051 C 278.018 232.152,277.909 232.422,277.258 231.894 C 276.750 231.481,276.693 231.515,276.913 232.100 C 277.057 232.485,276.990 232.800,276.764 232.800 C 276.538 232.800,276.488 233.025,276.653 233.300 C 276.857 233.640,276.737 233.624,276.277 233.251 C 275.668 232.757,275.600 232.828,275.600 233.951 C 275.600 234.816,275.408 235.200,274.976 235.200 C 274.633 235.200,274.472 235.392,274.617 235.627 C 274.762 235.862,274.504 236.152,274.045 236.272 C 273.585 236.393,273.315 236.663,273.445 236.872 C 273.574 237.082,273.315 237.349,272.868 237.466 C 272.377 237.595,272.141 237.901,272.270 238.239 C 272.412 238.609,272.203 238.800,271.655 238.800 C 271.082 238.800,270.896 238.985,271.055 239.400 C 271.213 239.810,271.033 240.000,270.487 240.000 C 270.048 240.000,269.697 240.225,269.707 240.500 C 269.757 241.837,269.548 242.400,269.000 242.400 C 268.463 242.400,268.226 242.867,268.348 243.686 C 268.371 243.843,268.123 243.868,267.795 243.743 C 267.381 243.584,267.200 243.778,267.200 244.381 C 267.200 244.861,267.020 245.136,266.797 244.998 C 266.576 244.861,266.287 245.030,266.155 245.372 C 266.024 245.715,265.768 245.904,265.587 245.792 C 265.406 245.680,265.142 245.954,265.000 246.400 C 264.858 246.848,264.548 247.091,264.308 246.943 C 264.032 246.772,263.948 246.959,264.078 247.457 C 264.246 248.096,264.057 248.256,263.044 248.333 C 261.659 248.439,258.655 251.046,258.971 251.869 C 259.085 252.167,258.932 252.272,258.580 252.137 C 258.075 251.943,257.825 252.381,257.939 253.259 C 257.957 253.401,257.591 253.418,257.124 253.296 C 256.634 253.168,256.375 253.236,256.512 253.457 C 256.642 253.668,256.381 254.069,255.932 254.349 C 255.483 254.630,255.234 254.668,255.379 254.434 C 255.539 254.175,255.401 254.102,255.023 254.246 C 254.683 254.377,254.504 254.645,254.626 254.842 C 254.748 255.039,254.568 255.200,254.227 255.200 C 253.886 255.200,253.393 255.542,253.132 255.960 C 252.871 256.378,252.405 256.623,252.097 256.505 C 251.783 256.384,251.034 256.841,250.389 257.548 C 249.757 258.240,248.782 258.844,248.222 258.890 C 247.560 258.945,247.239 259.188,247.302 259.587 C 247.363 259.965,247.121 260.177,246.673 260.140 C 246.200 260.101,246.020 260.276,246.160 260.640 C 246.360 261.161,245.722 261.368,244.100 261.307 C 243.825 261.297,243.600 261.539,243.600 261.844 C 243.600 262.353,243.016 262.556,241.700 262.507 C 241.425 262.497,241.200 262.739,241.200 263.044 C 241.200 263.395,240.757 263.600,240.000 263.600 C 239.200 263.600,238.800 263.800,238.800 264.200 C 238.800 264.600,238.400 264.800,237.600 264.800 C 236.800 264.800,236.400 265.000,236.400 265.400 C 236.400 265.993,235.816 266.153,234.133 266.020 C 233.657 265.982,233.117 266.215,232.933 266.537 C 232.750 266.859,232.150 267.190,231.600 267.271 C 231.050 267.352,230.645 267.640,230.700 267.909 C 230.761 268.210,230.296 268.418,229.500 268.446 C 227.413 268.520,227.189 268.574,226.876 269.080 C 226.712 269.343,225.891 269.630,225.052 269.716 C 224.213 269.802,223.396 270.084,223.236 270.342 C 223.076 270.600,221.998 270.832,220.840 270.859 C 219.463 270.890,218.662 271.095,218.524 271.453 C 218.375 271.842,217.523 272.000,215.577 272.000 C 213.596 272.000,212.750 272.161,212.514 272.583 C 212.262 273.033,211.169 273.179,207.720 273.227 C 204.317 273.273,203.201 273.420,203.039 273.844 C 202.738 274.626,199.758 274.590,199.455 273.800 C 199.269 273.315,198.344 273.200,194.613 273.200 C 190.779 273.200,190.000 273.099,190.000 272.600 C 190.000 272.270,189.730 272.000,189.400 272.000 C 189.070 272.000,188.800 272.216,188.800 272.480 C 188.800 272.853,188.693 272.853,188.320 272.480 C 188.056 272.216,187.053 272.000,186.091 272.000 C 185.070 272.000,184.093 271.750,183.743 271.400 C 183.372 271.029,182.390 270.800,181.171 270.800 C 179.686 270.800,179.200 270.652,179.200 270.200 C 179.200 269.747,178.713 269.600,177.213 269.600 C 175.610 269.600,175.270 269.484,175.455 269.000 C 175.639 268.520,175.316 268.400,173.843 268.400 C 172.432 268.400,172.000 268.252,172.000 267.770 C 172.000 267.300,171.670 267.172,170.700 267.267 C 169.627 267.371,169.422 267.266,169.525 266.664 C 169.624 266.088,169.413 265.950,168.525 266.010 C 166.492 266.145,166.000 266.009,165.972 265.300 C 165.948 264.701,165.894 264.716,165.600 265.400 C 165.283 266.137,165.254 266.142,165.228 265.457 C 165.209 264.958,164.998 264.792,164.585 264.951 C 164.215 265.092,163.856 264.910,163.685 264.493 C 163.528 264.112,162.958 263.751,162.417 263.690 C 161.877 263.630,161.335 263.419,161.213 263.222 C 161.092 263.025,160.499 262.740,159.896 262.588 C 159.293 262.437,158.800 262.172,158.800 262.000 C 158.800 261.828,158.307 261.563,157.704 261.412 C 157.101 261.260,156.478 260.926,156.319 260.668 C 156.159 260.411,155.798 260.200,155.515 260.200 C 155.232 260.200,155.000 259.930,155.000 259.600 C 155.000 259.270,154.565 258.939,154.032 258.863 C 153.499 258.788,152.604 258.203,152.043 257.563 C 151.462 256.902,150.618 256.400,150.087 256.400 C 149.566 256.400,149.262 256.223,149.400 256.000 C 149.536 255.780,149.469 255.600,149.252 255.600 C 149.035 255.600,148.577 255.320,148.236 254.978 C 147.894 254.636,147.269 254.290,146.847 254.209 C 145.874 254.022,144.379 252.758,144.637 252.340 C 144.745 252.166,144.358 251.904,143.778 251.759 C 143.024 251.569,142.874 251.402,143.251 251.169 C 143.653 250.920,143.590 250.772,142.989 250.543 C 142.555 250.378,141.869 249.824,141.464 249.312 C 141.059 248.800,140.519 248.407,140.264 248.438 C 139.299 248.556,138.402 248.389,138.447 248.100 C 138.582 247.245,138.337 246.849,137.800 247.055 C 137.385 247.214,137.200 247.029,137.200 246.455 C 137.200 245.882,137.015 245.696,136.600 245.855 C 136.220 246.001,136.000 245.850,136.000 245.443 C 136.000 245.089,135.700 244.800,135.333 244.800 C 134.967 244.800,134.785 244.682,134.930 244.537 C 135.292 244.175,134.395 243.156,133.955 243.428 C 133.760 243.549,133.600 243.367,133.600 243.024 C 133.600 242.681,133.420 242.400,133.200 242.400 C 132.980 242.400,132.800 242.074,132.800 241.675 C 132.800 241.276,132.260 240.432,131.600 239.800 C 130.940 239.168,130.400 238.403,130.400 238.102 C 130.400 237.800,130.208 237.672,129.973 237.817 C 129.738 237.962,129.448 237.704,129.328 237.245 C 129.207 236.785,128.962 236.500,128.782 236.611 C 128.602 236.722,128.340 236.627,128.200 236.400 C 128.060 236.173,127.732 236.114,127.472 236.270 C 127.213 236.426,127.255 236.239,127.568 235.854 C 128.058 235.250,128.058 235.172,127.568 235.277 C 127.186 235.360,126.959 234.971,126.874 234.092 C 126.802 233.345,126.576 232.891,126.347 233.033 C 126.127 233.169,125.848 232.904,125.728 232.445 C 125.607 231.985,125.337 231.715,125.128 231.845 C 124.918 231.974,124.647 231.702,124.526 231.240 C 124.406 230.778,124.058 230.400,123.753 230.400 C 123.194 230.400,123.050 229.973,123.179 228.700 C 123.220 228.302,122.981 228.000,122.625 228.000 C 122.197 228.000,122.000 227.621,122.000 226.800 C 122.000 226.000,121.800 225.600,121.400 225.600 C 121.070 225.600,120.800 225.330,120.800 225.000 C 120.800 224.670,120.530 224.400,120.200 224.400 C 119.800 224.400,119.600 224.000,119.600 223.200 C 119.600 222.400,119.400 222.000,119.000 222.000 C 118.625 222.000,118.400 221.621,118.400 220.987 C 118.400 220.431,118.130 219.871,117.800 219.745 C 117.458 219.613,117.200 219.017,117.200 218.357 C 117.200 217.595,116.995 217.200,116.600 217.200 C 116.201 217.200,116.000 216.801,116.000 216.013 C 116.000 215.121,115.850 214.883,115.400 215.055 C 114.988 215.213,114.800 215.031,114.800 214.476 C 114.800 214.031,114.575 213.576,114.300 213.465 C 113.900 213.304,113.900 213.257,114.300 213.232 C 114.575 213.214,114.800 213.020,114.800 212.800 C 114.800 212.580,114.595 212.445,114.345 212.500 C 113.846 212.610,113.266 210.992,113.422 209.928 C 113.477 209.558,113.269 209.159,112.961 209.040 C 112.607 208.905,112.400 208.225,112.400 207.200 C 112.400 206.124,112.197 205.497,111.800 205.345 C 111.393 205.188,111.200 204.550,111.200 203.357 C 111.200 202.165,111.039 201.632,110.700 201.700 C 110.357 201.769,110.162 201.078,110.080 199.500 C 109.992 197.813,109.806 197.200,109.380 197.200 C 108.925 197.200,108.800 196.554,108.800 194.200 C 108.800 191.800,108.680 191.200,108.200 191.200 C 107.652 191.200,107.260 185.828,107.580 182.697 C 107.619 182.311,107.370 181.887,107.026 181.754 C 106.169 181.426,106.148 178.072,107.000 177.745 C 107.485 177.559,107.600 176.639,107.600 172.957 C 107.600 169.360,107.716 168.400,108.149 168.400 C 108.559 168.400,108.714 167.665,108.758 165.511 C 108.801 163.425,108.982 162.530,109.409 162.291 C 109.817 162.063,110.000 161.290,110.000 159.800 C 110.000 158.166,110.171 157.539,110.700 157.227 C 111.311 156.867,111.323 156.763,110.800 156.413 C 110.397 156.144,110.364 156.010,110.700 156.006 C 110.975 156.003,111.200 155.550,111.200 155.000 C 111.200 154.416,111.430 154.000,111.753 154.000 C 112.132 154.000,112.313 153.471,112.329 152.312 C 112.343 151.267,112.590 150.450,112.976 150.168 C 113.343 149.899,113.600 149.113,113.600 148.256 C 113.600 147.228,113.777 146.800,114.200 146.800 C 114.600 146.800,114.800 146.400,114.800 145.600 C 114.800 144.800,115.000 144.400,115.400 144.400 C 115.766 144.400,116.000 144.027,116.000 143.443 C 116.000 142.916,116.270 142.382,116.600 142.255 C 116.930 142.129,117.200 141.584,117.200 141.046 C 117.200 140.507,117.409 139.997,117.663 139.912 C 117.918 139.827,118.193 139.325,118.273 138.796 C 118.354 138.267,118.641 137.698,118.910 137.532 C 119.385 137.239,119.443 137.080,119.550 135.800 C 119.578 135.470,119.889 135.200,120.243 135.200 C 120.650 135.200,120.801 134.980,120.655 134.600 C 120.499 134.192,120.677 134.000,121.213 134.000 C 122.088 134.000,122.279 133.379,121.500 133.065 C 121.100 132.904,121.100 132.857,121.500 132.832 C 121.775 132.814,122.000 132.530,122.000 132.200 C 122.000 131.870,122.289 131.600,122.643 131.600 C 123.050 131.600,123.201 131.380,123.055 131.000 C 122.899 130.592,123.077 130.400,123.613 130.400 C 124.488 130.400,124.679 129.779,123.900 129.465 C 123.500 129.304,123.500 129.257,123.900 129.232 C 124.175 129.214,124.400 128.930,124.400 128.600 C 124.400 128.270,124.670 128.000,125.000 128.000 C 125.330 128.000,125.600 127.749,125.600 127.443 C 125.600 127.136,125.878 126.779,126.219 126.648 C 126.559 126.518,126.808 126.183,126.771 125.905 C 126.632 124.842,126.822 124.400,127.418 124.400 C 127.784 124.400,127.987 124.115,127.918 123.700 C 127.837 123.223,128.023 123.037,128.500 123.118 C 128.915 123.187,129.200 122.984,129.200 122.618 C 129.200 122.278,129.460 122.000,129.777 122.000 C 130.142 122.000,130.296 121.701,130.198 121.187 C 130.084 120.599,130.229 120.406,130.720 120.487 C 131.225 120.571,131.432 120.263,131.526 119.292 C 131.595 118.573,131.821 118.090,132.029 118.218 C 132.236 118.346,132.514 118.169,132.646 117.825 C 132.778 117.481,133.136 117.200,133.443 117.200 C 133.749 117.200,134.000 116.930,134.000 116.600 C 134.000 116.270,134.270 116.000,134.600 116.000 C 134.930 116.000,135.200 115.730,135.200 115.400 C 135.200 115.070,135.470 114.800,135.800 114.800 C 136.130 114.800,136.400 114.530,136.400 114.200 C 136.400 113.870,136.670 113.600,137.000 113.600 C 137.330 113.600,137.600 113.330,137.600 113.000 C 137.600 112.670,137.878 112.400,138.218 112.400 C 138.584 112.400,138.787 112.115,138.718 111.700 C 138.638 111.226,138.823 111.037,139.294 111.116 C 139.776 111.197,139.915 111.044,139.751 110.616 C 139.538 110.062,140.592 109.739,141.432 110.100 C 141.560 110.155,141.914 109.750,142.218 109.200 C 142.523 108.650,142.778 108.338,142.786 108.507 C 142.794 108.676,143.579 108.001,144.531 107.007 C 145.592 105.900,146.616 105.200,147.174 105.200 C 147.817 105.200,148.018 105.024,147.857 104.605 C 147.732 104.277,147.757 104.029,147.914 104.052 C 148.768 104.179,149.262 103.940,149.087 103.484 C 148.961 103.154,149.265 102.936,149.928 102.881 C 150.500 102.834,151.460 102.256,152.061 101.598 C 152.730 100.865,153.552 100.400,154.177 100.400 C 154.820 100.400,155.200 100.177,155.200 99.800 C 155.200 99.470,155.470 99.200,155.800 99.200 C 156.130 99.200,156.400 98.930,156.400 98.600 C 156.400 98.200,156.800 98.000,157.600 98.000 C 158.400 98.000,158.800 97.800,158.800 97.400 C 158.800 96.997,159.203 96.800,160.024 96.800 C 160.737 96.800,161.144 96.633,161.000 96.400 C 160.864 96.180,160.898 95.985,161.076 95.967 C 161.254 95.948,161.822 95.887,162.337 95.831 C 162.852 95.774,163.429 95.476,163.620 95.168 C 163.811 94.859,164.199 94.588,164.483 94.564 C 165.814 94.455,166.000 94.360,166.000 93.793 C 166.000 93.339,166.378 93.213,167.500 93.293 C 168.325 93.352,169.038 93.220,169.084 93.000 C 169.131 92.780,169.761 92.504,170.484 92.387 C 171.224 92.268,171.756 91.961,171.700 91.687 C 171.633 91.362,172.193 91.200,173.380 91.200 C 174.518 91.200,175.277 90.991,175.484 90.621 C 175.662 90.303,176.498 89.971,177.341 89.885 C 178.184 89.798,179.000 89.524,179.154 89.274 C 179.308 89.025,180.379 88.787,181.533 88.746 C 182.770 88.702,183.751 88.458,183.923 88.152 C 184.110 87.818,185.187 87.605,186.942 87.557 C 188.810 87.506,189.736 87.311,189.878 86.941 C 190.037 86.526,191.248 86.400,195.055 86.400 C 199.104 86.400,200.068 86.289,200.255 85.800 C 200.557 85.013,201.848 85.028,202.153 85.822 C 202.356 86.350,203.182 86.426,207.601 86.322 C 211.450 86.232,212.763 86.322,212.630 86.667 C 212.373 87.334,213.329 87.600,215.990 87.600 C 217.562 87.600,218.381 87.773,218.520 88.135 C 218.650 88.475,219.501 88.698,220.845 88.746 C 222.011 88.787,223.094 89.028,223.251 89.282 C 223.408 89.536,223.865 89.782,224.268 89.828 C 224.671 89.874,225.589 89.970,226.310 90.042 C 227.048 90.115,227.547 90.362,227.453 90.607 C 227.355 90.862,227.887 91.083,228.737 91.140 C 229.536 91.194,230.336 91.499,230.515 91.819 C 230.693 92.139,231.262 92.400,231.777 92.400 C 232.293 92.400,232.824 92.686,232.958 93.035 C 233.148 93.531,233.540 93.613,234.747 93.409 C 236.089 93.182,236.322 93.257,236.509 93.974 C 236.654 94.529,237.051 94.800,237.720 94.800 C 238.267 94.800,238.818 95.070,238.945 95.400 C 239.071 95.730,239.631 96.000,240.187 96.000 C 240.744 96.000,241.200 96.180,241.200 96.400 C 241.200 96.620,241.740 96.800,242.400 96.800 C 243.200 96.800,243.600 97.000,243.600 97.400 C 243.600 97.800,244.000 98.000,244.800 98.000 C 245.600 98.000,246.000 98.200,246.000 98.600 C 246.000 98.930,246.270 99.200,246.600 99.200 C 246.930 99.200,247.200 99.470,247.200 99.800 C 247.200 100.200,247.600 100.400,248.400 100.400 C 249.200 100.400,249.600 100.600,249.600 101.000 C 249.600 101.330,249.870 101.600,250.200 101.600 C 250.530 101.600,250.800 101.870,250.800 102.200 C 250.800 102.600,251.200 102.800,252.000 102.800 C 252.800 102.800,253.200 103.000,253.200 103.400 C 253.200 103.730,253.470 104.000,253.800 104.000 C 254.130 104.000,254.355 104.225,254.300 104.500 C 254.240 104.799,254.722 105.050,255.500 105.125 C 256.215 105.194,256.800 105.428,256.800 105.644 C 256.800 105.861,257.295 106.501,257.900 107.067 C 258.505 107.633,258.955 108.255,258.900 108.448 C 258.845 108.642,261.241 108.800,264.224 108.800 C 267.966 108.800,269.565 108.668,269.383 108.373 C 269.238 108.138,269.495 107.848,269.953 107.728 L 270.786 107.510 270.797 63.555 C 270.806 24.637,270.738 19.600,270.203 19.600 C 269.872 19.600,269.600 19.330,269.600 19.000 C 269.600 18.667,269.244 18.400,268.800 18.400 C 268.360 18.400,268.045 18.175,268.100 17.900 C 268.160 17.600,267.676 17.350,266.892 17.274 C 266.173 17.205,265.689 16.980,265.816 16.774 C 265.943 16.568,265.992 16.393,265.924 16.385 C 263.728 16.117,262.552 15.835,262.363 15.533 C 262.232 15.325,261.429 15.069,260.577 14.963 C 259.726 14.858,258.908 14.575,258.760 14.335 C 258.612 14.096,257.798 13.823,256.950 13.730 C 256.103 13.637,255.273 13.316,255.106 13.018 C 254.914 12.675,254.044 12.471,252.730 12.461 C 251.388 12.450,250.547 12.248,250.345 11.888 C 250.174 11.581,249.360 11.306,248.538 11.275 C 247.715 11.244,246.904 10.971,246.735 10.670 C 246.534 10.310,245.566 10.095,243.929 10.046 C 242.391 9.999,241.182 9.746,240.784 9.385 C 240.106 8.772,239.419 8.584,239.739 9.100 C 240.193 9.831,235.404 9.099,234.885 8.358 C 234.302 7.524,233.383 7.299,233.835 8.100 C 234.061 8.500,234.010 8.500,233.579 8.100 C 233.243 7.789,231.862 7.600,229.920 7.600 C 227.694 7.600,226.798 7.457,226.794 7.100 C 226.789 6.734,226.695 6.746,226.442 7.145 C 226.151 7.606,226.069 7.606,225.915 7.145 C 225.726 6.579,178.474 6.060,177.915 6.618 M190.353 112.700 C 190.327 112.865,190.327 113.135,190.353 113.300 C 190.379 113.465,188.774 113.600,186.787 113.600 C 183.945 113.600,183.126 113.728,182.945 114.200 C 182.794 114.592,182.171 114.800,181.145 114.800 C 180.118 114.800,179.495 115.008,179.345 115.400 C 179.194 115.792,178.571 116.000,177.545 116.000 C 176.518 116.000,175.895 116.208,175.745 116.600 C 175.598 116.983,174.982 117.200,174.046 117.200 C 173.078 117.200,172.347 117.470,171.900 117.992 C 171.517 118.439,170.957 118.682,170.614 118.550 C 170.244 118.408,169.887 118.607,169.703 119.058 C 169.522 119.502,168.998 119.800,168.400 119.800 C 167.813 119.800,167.441 120.007,167.500 120.300 C 167.555 120.575,167.336 120.800,167.014 120.800 C 166.692 120.800,166.248 121.136,166.028 121.547 C 165.746 122.074,165.329 122.237,164.614 122.101 C 163.867 121.958,163.600 122.077,163.600 122.553 C 163.600 122.909,163.330 123.200,163.000 123.200 C 162.670 123.200,162.400 123.380,162.400 123.600 C 162.400 123.820,162.209 124.000,161.976 124.000 C 161.743 124.000,161.664 123.820,161.800 123.600 C 161.936 123.380,161.837 123.200,161.581 123.200 C 161.324 123.200,161.214 123.460,161.336 123.777 C 161.640 124.571,159.022 126.800,157.786 126.800 C 157.244 126.800,156.821 126.935,156.847 127.100 C 156.983 127.961,156.735 128.350,156.184 128.138 C 155.845 128.008,155.596 128.059,155.631 128.251 C 155.788 129.111,155.548 129.507,154.900 129.456 C 154.443 129.419,154.240 129.641,154.316 130.094 C 154.397 130.576,154.244 130.715,153.816 130.551 C 153.250 130.334,152.996 130.804,153.169 131.749 C 153.204 131.941,152.955 131.992,152.616 131.862 C 152.264 131.726,152.000 131.839,152.000 132.125 C 152.000 132.401,151.191 133.340,150.203 134.213 C 149.215 135.086,148.405 136.115,148.403 136.500 C 148.400 137.255,147.054 138.800,146.400 138.800 C 146.180 138.800,146.000 139.070,146.000 139.400 C 146.000 139.730,145.709 140.000,145.353 140.000 C 144.900 140.000,144.770 140.243,144.920 140.816 C 145.054 141.329,144.834 141.910,144.324 142.385 C 143.879 142.800,143.625 143.317,143.760 143.536 C 143.895 143.754,143.419 144.520,142.703 145.237 C 141.986 145.955,141.376 146.735,141.346 146.971 C 141.317 147.207,141.272 147.636,141.246 147.924 C 141.221 148.212,141.020 148.336,140.800 148.200 C 140.580 148.064,140.373 148.188,140.339 148.476 C 140.306 148.764,140.236 149.180,140.185 149.400 C 140.134 149.620,140.072 150.025,140.046 150.300 C 140.021 150.575,139.730 150.800,139.400 150.800 C 138.967 150.800,138.800 151.244,138.800 152.400 C 138.800 153.556,138.633 154.000,138.200 154.000 C 137.758 154.000,137.600 154.462,137.600 155.757 C 137.600 156.950,137.407 157.588,137.000 157.745 C 136.608 157.895,136.400 158.518,136.400 159.545 C 136.400 160.571,136.192 161.194,135.800 161.345 C 135.331 161.525,135.200 162.324,135.200 165.000 C 135.200 167.676,135.069 168.475,134.600 168.655 C 133.725 168.991,133.696 190.589,134.570 191.080 C 134.975 191.308,135.172 192.352,135.252 194.700 C 135.332 197.077,135.508 198.000,135.882 198.000 C 136.319 198.000,136.691 200.958,136.447 202.500 C 136.421 202.665,136.670 202.800,137.000 202.800 C 137.514 202.800,137.822 203.797,137.647 204.900 C 137.621 205.065,137.870 205.200,138.200 205.200 C 138.644 205.200,138.800 205.667,138.800 207.000 C 138.800 208.333,138.956 208.800,139.400 208.800 C 139.800 208.800,140.000 209.200,140.000 210.000 C 140.000 210.800,140.200 211.200,140.600 211.200 C 141.000 211.200,141.200 211.600,141.200 212.400 C 141.200 213.200,141.400 213.600,141.800 213.600 C 142.195 213.600,142.400 213.995,142.400 214.753 C 142.400 215.589,142.632 215.967,143.240 216.126 C 143.703 216.247,143.962 216.538,143.817 216.773 C 143.672 217.008,143.833 217.200,144.176 217.200 C 144.731 217.200,145.040 218.234,144.825 219.368 C 144.786 219.570,145.070 219.480,145.454 219.168 C 145.839 218.855,146.026 218.813,145.870 219.072 C 145.714 219.332,145.773 219.660,146.000 219.800 C 146.227 219.940,146.322 220.202,146.211 220.382 C 146.100 220.562,146.385 220.807,146.845 220.928 C 147.304 221.048,147.562 221.338,147.417 221.573 C 147.272 221.808,147.433 222.000,147.776 222.000 C 148.119 222.000,148.400 222.317,148.400 222.704 C 148.400 223.092,149.999 225.063,151.953 227.085 C 153.907 229.107,155.392 230.889,155.253 231.044 C 155.114 231.200,155.324 231.211,155.721 231.068 C 156.151 230.914,156.343 230.969,156.197 231.205 C 156.063 231.422,156.154 231.600,156.400 231.600 C 156.646 231.600,156.717 231.811,156.558 232.068 C 156.364 232.382,156.486 232.452,156.930 232.282 C 157.398 232.103,157.658 232.292,157.818 232.931 C 157.953 233.466,158.377 233.858,158.862 233.895 C 159.312 233.929,159.926 234.281,160.227 234.678 C 160.528 235.075,160.780 235.231,160.787 235.024 C 160.794 234.816,161.025 234.954,161.300 235.328 C 161.575 235.703,162.200 236.086,162.689 236.180 C 163.178 236.273,164.126 236.910,164.795 237.595 C 165.464 238.280,166.177 238.738,166.379 238.613 C 166.580 238.489,166.983 238.723,167.273 239.133 C 167.563 239.544,168.126 239.832,168.525 239.772 C 168.923 239.712,169.351 239.927,169.474 240.249 C 169.597 240.570,169.991 240.805,170.349 240.771 C 171.879 240.623,172.372 240.807,172.131 241.435 C 171.957 241.889,172.103 242.046,172.644 241.989 C 174.795 241.759,175.973 242.005,175.731 242.635 C 175.557 243.089,175.703 243.246,176.244 243.189 C 177.827 243.020,178.376 243.196,178.145 243.800 C 177.954 244.296,178.374 244.400,180.570 244.400 C 182.561 244.400,183.283 244.550,183.455 245.000 C 183.626 245.445,184.334 245.600,186.200 245.600 C 188.085 245.600,188.773 245.753,188.949 246.210 C 189.290 247.099,212.475 247.068,213.365 246.178 C 213.752 245.791,214.815 245.600,216.584 245.600 C 218.563 245.600,219.283 245.450,219.455 245.000 C 219.625 244.559,220.321 244.400,222.086 244.400 C 224.055 244.400,224.444 244.292,224.255 243.800 C 224.027 243.204,224.564 243.023,226.100 243.179 C 226.498 243.220,226.800 242.981,226.800 242.625 C 226.800 242.029,227.863 241.792,229.700 241.979 C 230.501 242.061,230.652 241.368,229.900 241.065 C 229.625 240.954,229.850 240.828,230.400 240.785 C 230.950 240.743,231.670 240.683,232.000 240.654 C 232.330 240.624,232.557 240.381,232.505 240.114 C 232.450 239.834,232.661 239.725,233.005 239.857 C 233.345 239.988,233.600 239.861,233.600 239.563 C 233.600 239.169,233.714 239.154,234.059 239.499 C 234.404 239.844,234.712 239.712,235.300 238.964 C 235.879 238.228,236.214 238.080,236.592 238.393 C 236.975 238.711,237.161 238.594,237.335 237.926 C 237.463 237.436,237.694 237.161,237.848 237.315 C 238.002 237.469,238.390 237.221,238.711 236.763 C 239.069 236.252,239.578 236.006,240.033 236.124 C 240.515 236.251,240.855 236.057,241.010 235.567 C 241.142 235.154,241.455 234.858,241.706 234.908 C 241.958 234.959,242.172 234.730,242.182 234.400 C 242.192 234.070,242.470 233.792,242.800 233.782 C 243.130 233.772,243.361 233.566,243.314 233.324 C 243.267 233.082,243.857 232.766,244.625 232.622 C 245.394 232.478,245.925 232.202,245.805 232.009 C 245.686 231.816,245.954 231.542,246.400 231.400 C 246.846 231.258,247.108 230.975,246.982 230.771 C 246.856 230.567,246.954 230.400,247.200 230.400 C 247.446 230.400,247.537 230.222,247.403 230.005 C 247.258 229.770,247.437 229.716,247.845 229.873 C 248.290 230.043,248.436 229.981,248.260 229.697 C 248.108 229.452,248.341 229.146,248.786 229.004 C 249.225 228.865,249.542 228.617,249.492 228.454 C 249.441 228.290,250.435 227.120,251.700 225.852 C 252.965 224.585,254.000 223.200,254.000 222.774 C 254.000 222.348,254.270 222.000,254.600 222.000 C 254.930 222.000,255.179 221.865,255.153 221.700 C 255.017 220.839,255.265 220.450,255.816 220.662 C 256.155 220.792,256.404 220.741,256.369 220.549 C 256.233 219.802,256.473 218.624,256.665 219.100 C 256.962 219.837,257.496 219.708,257.493 218.900 C 257.488 217.491,257.613 217.200,258.224 217.200 C 258.567 217.200,258.728 217.008,258.583 216.773 C 258.438 216.538,258.697 216.247,259.160 216.126 C 259.811 215.956,260.000 215.593,260.000 214.511 C 260.000 213.434,260.137 213.167,260.600 213.345 C 261.050 213.517,261.200 213.279,261.200 212.387 C 261.200 211.561,261.396 211.200,261.847 211.200 C 262.329 211.200,262.442 210.933,262.293 210.151 C 262.143 209.365,262.277 209.053,262.826 208.909 C 263.380 208.764,263.589 208.263,263.680 206.859 C 263.746 205.836,263.987 205.032,264.215 205.072 C 264.443 205.111,264.667 204.694,264.713 204.145 C 264.758 203.597,265.066 202.876,265.398 202.545 C 265.768 202.175,266.000 201.199,266.000 200.014 C 266.000 198.669,266.181 198.016,266.600 197.855 C 267.063 197.677,267.200 196.904,267.200 194.455 C 267.200 192.007,267.337 191.233,267.800 191.055 C 268.314 190.858,268.400 189.206,268.400 179.570 C 268.400 169.729,268.325 168.343,267.800 168.545 C 267.302 168.736,267.190 168.252,267.139 165.687 C 267.056 161.459,267.060 161.487,266.498 161.299 C 266.224 161.208,266.000 160.644,266.000 160.047 C 266.000 159.449,265.775 158.718,265.500 158.421 C 265.094 157.984,265.113 157.937,265.600 158.171 C 265.998 158.362,265.971 158.271,265.520 157.900 C 265.122 157.573,264.801 156.661,264.744 155.696 C 264.690 154.791,264.456 154.085,264.223 154.126 C 263.990 154.167,263.745 153.435,263.677 152.500 C 263.593 151.343,263.370 150.800,262.977 150.800 C 262.660 150.800,262.381 150.575,262.357 150.300 C 262.334 150.025,262.289 149.440,262.257 149.000 C 262.226 148.560,261.975 148.245,261.700 148.300 C 261.389 148.362,261.200 147.947,261.200 147.200 C 261.200 146.273,261.021 146.000,260.413 146.000 C 259.877 146.000,259.699 145.808,259.855 145.400 C 260.001 145.020,259.850 144.800,259.443 144.800 C 258.995 144.800,258.800 144.436,258.800 143.600 C 258.800 142.800,258.600 142.400,258.200 142.400 C 257.851 142.400,257.600 142.037,257.600 141.531 C 257.600 141.024,256.851 139.945,255.800 138.938 C 254.810 137.990,254.000 136.845,254.000 136.394 C 254.000 135.944,253.730 135.471,253.400 135.345 C 253.070 135.218,252.800 134.864,252.800 134.557 C 252.800 134.251,252.530 134.000,252.200 134.000 C 251.870 134.000,251.600 133.730,251.600 133.400 C 251.600 133.070,251.330 132.800,251.000 132.800 C 250.670 132.800,250.400 132.609,250.400 132.376 C 250.400 131.684,245.357 126.800,244.643 126.800 C 244.282 126.800,243.199 125.978,242.236 124.973 C 241.273 123.968,240.241 123.179,239.942 123.220 C 238.881 123.366,238.401 123.193,238.500 122.700 C 238.555 122.425,238.330 122.176,238.000 122.146 C 237.670 122.117,237.175 122.072,236.900 122.046 C 236.625 122.021,236.400 121.730,236.400 121.400 C 236.400 121.070,236.130 120.800,235.800 120.800 C 235.470 120.800,235.200 120.519,235.200 120.175 C 235.200 119.819,234.898 119.580,234.500 119.621 C 233.207 119.752,232.800 119.604,232.800 119.000 C 232.800 118.581,232.378 118.400,231.400 118.400 C 230.422 118.400,230.000 118.219,230.000 117.800 C 230.000 117.369,229.560 117.200,228.443 117.200 C 227.428 117.200,226.805 116.991,226.655 116.600 C 226.505 116.208,225.882 116.000,224.855 116.000 C 223.829 116.000,223.206 115.792,223.055 115.400 C 222.905 115.008,222.282 114.800,221.255 114.800 C 220.229 114.800,219.606 114.592,219.455 114.200 C 219.277 113.735,218.496 113.600,215.984 113.600 C 213.636 113.600,212.577 113.435,212.143 113.000 C 211.495 112.352,190.453 112.062,190.353 112.700 " stroke="none" fill="#bc946c" fill-rule="evenodd"></path><path id="path1" d="M175.792 6.814 C 175.630 7.075,175.933 7.155,176.617 7.031 C 178.092 6.764,178.364 6.400,177.090 6.400 C 176.517 6.400,175.932 6.586,175.792 6.814 M225.000 6.693 C 225.440 6.803,225.932 7.097,226.094 7.346 C 226.280 7.634,226.390 7.544,226.394 7.100 C 226.398 6.590,226.101 6.413,225.300 6.446 C 224.457 6.482,224.387 6.539,225.000 6.693 M164.100 9.087 C 164.705 9.178,165.695 9.178,166.300 9.087 C 166.905 8.995,166.410 8.920,165.200 8.920 C 163.990 8.920,163.495 8.995,164.100 9.087 M235.600 9.027 C 236.944 9.327,239.911 9.380,239.738 9.100 C 239.636 8.935,238.528 8.821,237.276 8.846 C 236.024 8.872,235.270 8.953,235.600 9.027 M56.900 78.265 C 56.625 78.376,56.421 78.947,56.446 79.533 C 56.482 80.355,56.536 80.416,56.680 79.800 C 56.783 79.360,57.157 78.775,57.510 78.500 C 58.152 78.001,57.846 77.883,56.900 78.265 M160.513 124.831 C 159.588 125.694,158.959 126.395,159.115 126.389 C 159.491 126.375,162.503 123.570,162.330 123.396 C 162.256 123.322,161.438 123.968,160.513 124.831 M263.600 247.600 C 263.600 247.820,263.161 248.000,262.624 248.000 C 262.087 248.000,261.548 248.161,261.426 248.357 C 261.299 248.563,261.790 248.583,262.583 248.404 C 263.340 248.233,264.068 248.202,264.201 248.334 C 264.334 248.467,264.324 248.266,264.178 247.888 C 263.886 247.125,263.600 246.983,263.600 247.600 M138.467 248.200 C 138.829 248.563,141.186 248.701,140.967 248.346 C 140.849 248.156,140.193 248.000,139.510 248.000 C 138.826 248.000,138.357 248.090,138.467 248.200 M257.519 252.369 C 256.970 253.010,256.955 253.174,257.426 253.355 C 257.736 253.474,257.971 253.443,257.948 253.286 C 257.811 252.368,258.066 251.940,258.621 252.153 C 258.977 252.289,259.137 252.222,258.997 251.995 C 258.637 251.412,258.256 251.509,257.519 252.369 M57.493 277.200 C 57.870 277.640,58.316 278.000,58.485 278.000 C 58.654 278.000,58.484 277.640,58.107 277.200 C 57.730 276.760,57.284 276.400,57.115 276.400 C 56.946 276.400,57.116 276.760,57.493 277.200 " stroke="none" fill="#c0946c" fill-rule="evenodd"></path><path id="path2" d="M175.792 6.814 C 175.630 7.075,175.933 7.155,176.617 7.031 C 178.092 6.764,178.364 6.400,177.090 6.400 C 176.517 6.400,175.932 6.586,175.792 6.814 M225.000 6.693 C 225.440 6.803,225.932 7.097,226.094 7.346 C 226.280 7.634,226.390 7.544,226.394 7.100 C 226.398 6.590,226.101 6.413,225.300 6.446 C 224.457 6.482,224.387 6.539,225.000 6.693 M164.100 9.087 C 164.705 9.178,165.695 9.178,166.300 9.087 C 166.905 8.995,166.410 8.920,165.200 8.920 C 163.990 8.920,163.495 8.995,164.100 9.087 M235.600 9.027 C 236.944 9.327,239.911 9.380,239.738 9.100 C 239.636 8.935,238.528 8.821,237.276 8.846 C 236.024 8.872,235.270 8.953,235.600 9.027 M56.900 78.265 C 56.625 78.376,56.421 78.947,56.446 79.533 C 56.482 80.355,56.536 80.416,56.680 79.800 C 56.783 79.360,57.157 78.775,57.510 78.500 C 58.152 78.001,57.846 77.883,56.900 78.265 M160.513 124.831 C 159.588 125.694,158.959 126.395,159.115 126.389 C 159.491 126.375,162.503 123.570,162.330 123.396 C 162.256 123.322,161.438 123.968,160.513 124.831 M263.600 247.600 C 263.600 247.820,263.161 248.000,262.624 248.000 C 262.087 248.000,261.548 248.161,261.426 248.357 C 261.299 248.563,261.790 248.583,262.583 248.404 C 263.340 248.233,264.068 248.202,264.201 248.334 C 264.334 248.467,264.324 248.266,264.178 247.888 C 263.886 247.125,263.600 246.983,263.600 247.600 M138.467 248.200 C 138.829 248.563,141.186 248.701,140.967 248.346 C 140.849 248.156,140.193 248.000,139.510 248.000 C 138.826 248.000,138.357 248.090,138.467 248.200 M257.519 252.369 C 256.970 253.010,256.955 253.174,257.426 253.355 C 257.736 253.474,257.971 253.443,257.948 253.286 C 257.811 252.368,258.066 251.940,258.621 252.153 C 258.977 252.289,259.137 252.222,258.997 251.995 C 258.637 251.412,258.256 251.509,257.519 252.369 M57.493 277.200 C 57.870 277.640,58.316 278.000,58.485 278.000 C 58.654 278.000,58.484 277.640,58.107 277.200 C 57.730 276.760,57.284 276.400,57.115 276.400 C 56.946 276.400,57.116 276.760,57.493 277.200 " stroke="none" fill="#c0946c" fill-rule="evenodd"></path><path id="path3" d="M175.792 6.814 C 175.630 7.075,175.933 7.155,176.617 7.031 C 178.092 6.764,178.364 6.400,177.090 6.400 C 176.517 6.400,175.932 6.586,175.792 6.814 M225.000 6.693 C 225.440 6.803,225.932 7.097,226.094 7.346 C 226.280 7.634,226.390 7.544,226.394 7.100 C 226.398 6.590,226.101 6.413,225.300 6.446 C 224.457 6.482,224.387 6.539,225.000 6.693 M164.100 9.087 C 164.705 9.178,165.695 9.178,166.300 9.087 C 166.905 8.995,166.410 8.920,165.200 8.920 C 163.990 8.920,163.495 8.995,164.100 9.087 M235.600 9.027 C 236.944 9.327,239.911 9.380,239.738 9.100 C 239.636 8.935,238.528 8.821,237.276 8.846 C 236.024 8.872,235.270 8.953,235.600 9.027 M56.900 78.265 C 56.625 78.376,56.421 78.947,56.446 79.533 C 56.482 80.355,56.536 80.416,56.680 79.800 C 56.783 79.360,57.157 78.775,57.510 78.500 C 58.152 78.001,57.846 77.883,56.900 78.265 M160.513 124.831 C 159.588 125.694,158.959 126.395,159.115 126.389 C 159.491 126.375,162.503 123.570,162.330 123.396 C 162.256 123.322,161.438 123.968,160.513 124.831 M263.600 247.600 C 263.600 247.820,263.161 248.000,262.624 248.000 C 262.087 248.000,261.548 248.161,261.426 248.357 C 261.299 248.563,261.790 248.583,262.583 248.404 C 263.340 248.233,264.068 248.202,264.201 248.334 C 264.334 248.467,264.324 248.266,264.178 247.888 C 263.886 247.125,263.600 246.983,263.600 247.600 M138.467 248.200 C 138.829 248.563,141.186 248.701,140.967 248.346 C 140.849 248.156,140.193 248.000,139.510 248.000 C 138.826 248.000,138.357 248.090,138.467 248.200 M257.519 252.369 C 256.970 253.010,256.955 253.174,257.426 253.355 C 257.736 253.474,257.971 253.443,257.948 253.286 C 257.811 252.368,258.066 251.940,258.621 252.153 C 258.977 252.289,259.137 252.222,258.997 251.995 C 258.637 251.412,258.256 251.509,257.519 252.369 M57.493 277.200 C 57.870 277.640,58.316 278.000,58.485 278.000 C 58.654 278.000,58.484 277.640,58.107 277.200 C 57.730 276.760,57.284 276.400,57.115 276.400 C 56.946 276.400,57.116 276.760,57.493 277.200 " stroke="none" fill="#c0946c" fill-rule="evenodd"></path><path id="path4" d="M175.792 6.814 C 175.630 7.075,175.933 7.155,176.617 7.031 C 178.092 6.764,178.364 6.400,177.090 6.400 C 176.517 6.400,175.932 6.586,175.792 6.814 M225.000 6.693 C 225.440 6.803,225.932 7.097,226.094 7.346 C 226.280 7.634,226.390 7.544,226.394 7.100 C 226.398 6.590,226.101 6.413,225.300 6.446 C 224.457 6.482,224.387 6.539,225.000 6.693 M164.100 9.087 C 164.705 9.178,165.695 9.178,166.300 9.087 C 166.905 8.995,166.410 8.920,165.200 8.920 C 163.990 8.920,163.495 8.995,164.100 9.087 M235.600 9.027 C 236.944 9.327,239.911 9.380,239.738 9.100 C 239.636 8.935,238.528 8.821,237.276 8.846 C 236.024 8.872,235.270 8.953,235.600 9.027 M56.900 78.265 C 56.625 78.376,56.421 78.947,56.446 79.533 C 56.482 80.355,56.536 80.416,56.680 79.800 C 56.783 79.360,57.157 78.775,57.510 78.500 C 58.152 78.001,57.846 77.883,56.900 78.265 M160.513 124.831 C 159.588 125.694,158.959 126.395,159.115 126.389 C 159.491 126.375,162.503 123.570,162.330 123.396 C 162.256 123.322,161.438 123.968,160.513 124.831 M263.600 247.600 C 263.600 247.820,263.161 248.000,262.624 248.000 C 262.087 248.000,261.548 248.161,261.426 248.357 C 261.299 248.563,261.790 248.583,262.583 248.404 C 263.340 248.233,264.068 248.202,264.201 248.334 C 264.334 248.467,264.324 248.266,264.178 247.888 C 263.886 247.125,263.600 246.983,263.600 247.600 M138.467 248.200 C 138.829 248.563,141.186 248.701,140.967 248.346 C 140.849 248.156,140.193 248.000,139.510 248.000 C 138.826 248.000,138.357 248.090,138.467 248.200 M257.519 252.369 C 256.970 253.010,256.955 253.174,257.426 253.355 C 257.736 253.474,257.971 253.443,257.948 253.286 C 257.811 252.368,258.066 251.940,258.621 252.153 C 258.977 252.289,259.137 252.222,258.997 251.995 C 258.637 251.412,258.256 251.509,257.519 252.369 M57.493 277.200 C 57.870 277.640,58.316 278.000,58.485 278.000 C 58.654 278.000,58.484 277.640,58.107 277.200 C 57.730 276.760,57.284 276.400,57.115 276.400 C 56.946 276.400,57.116 276.760,57.493 277.200 " stroke="none" fill="#c0946c" fill-rule="evenodd"></path></g></svg>